<svg xmlns="http://www.w3.org/2000/svg" version="1.1" xmlns:xlink="http://www.w3.org/1999/xlink" xmlns:svgjs="http://svgjs.dev/svgjs" width="2000" height="1247" viewBox="0 0 2000 1247"><g transform="matrix(1,0,0,1,-1.2121212121212466,0.504858299595071)"><svg viewBox="0 0 396 247" data-background-color="#f8efed" preserveAspectRatio="xMidYMid meet" height="1247" width="2000" xmlns="http://www.w3.org/2000/svg" xmlns:xlink="http://www.w3.org/1999/xlink"><g id="tight-bounds" transform="matrix(1,0,0,1,0.2400000000000091,-0.09999999999999432)"><svg viewBox="0 0 395.52 247.2" height="247.2" width="395.52"><g><svg viewBox="0 0 395.52 247.2" height="247.2" width="395.52"><g transform="matrix(1,0,0,1,2.842170943040401e-14,15.243254972875235)"><svg viewBox="0 0 395.5199999999999 216.71349005424952" height="216.71349005424952" width="395.5199999999999"><g><svg viewBox="0 0 395.5199999999999 216.71349005424952" height="216.71349005424952" width="395.5199999999999"><g><svg viewBox="0 0 395.5199999999999 216.71349005424952" height="216.71349005424952" width="395.5199999999999"><g><svg viewBox="0 0 395.5199999999999 216.71349005424952" height="216.71349005424952" width="395.5199999999999"><g id="textblocktransform"><svg viewBox="0 0 395.5199999999999 216.71349005424952" height="216.71349005424952" width="395.5199999999999" id="textblock"><g><svg viewBox="0 0 395.5199999999999 216.71349005424952" height="216.71349005424952" width="395.5199999999999"><g transform="matrix(1,0,0,1,0,0)"><svg width="395.5199999999999" viewBox="0.25 -38.5 83.94999694824219 46.45000076293945" height="216.71349005424952" data-palette-color="#3a424c"><path d="M15.1-4.5L14.6-4.5 14.6-31.5 15.1-31.5 15.1-18.25 34.3-18.25 34.3-31.5 34.8-31.5 34.8-4.5 34.3-4.5 34.3-17.75 15.1-17.75 15.1-4.5ZM11 0L18.75 0Q19.7 0 20.13-0.43 20.55-0.85 20.55-1.8L20.55-1.8 20.55-12.9 28.9-12.9 28.9-1.8Q28.9-0.85 29.33-0.43 29.75 0 30.7 0L30.7 0 38.45 0Q39.4 0 39.83-0.43 40.25-0.85 40.25-1.8L40.25-1.8 40.25-34.2Q40.25-35.15 39.83-35.58 39.4-36 38.45-36L38.45-36 30.7-36Q29.75-36 29.33-35.58 28.9-35.15 28.9-34.2L28.9-34.2 28.9-23.35 20.55-23.35 20.55-34.2Q20.55-35.15 20.13-35.58 19.7-36 18.75-36L18.75-36 11-36Q10.05-36 9.63-35.58 9.2-35.15 9.2-34.2L9.2-34.2 9.2-1.8Q9.2-0.85 9.63-0.43 10.05 0 11 0L11 0ZM20.35 0.05L20.35 0.05 13.85 5.45Q13.65 5.65 13.23 5.8 12.8 5.95 12.3 5.95L12.3 5.95 4.55 5.95Q3.35 5.95 2.8 5.4 2.25 4.85 2.25 3.65L2.25 3.65 2.25-28.75Q2.25-29.4 2.43-29.85 2.6-30.3 2.95-30.6L2.95-30.6 9.4-36.05Q9.65-36.25 10.08-36.38 10.5-36.5 11-36.5L11-36.5 18.75-36.5Q19.95-36.5 20.5-35.95 21.05-35.4 21.05-34.2L21.05-34.2 21.05-23.85 21.95-23.85 21.95-28.75Q21.95-29.4 22.13-29.85 22.3-30.3 22.65-30.6L22.65-30.6 29.1-36.05Q29.35-36.25 29.78-36.38 30.2-36.5 30.7-36.5L30.7-36.5 38.45-36.5Q39.65-36.5 40.2-35.95 40.75-35.4 40.75-34.2L40.75-34.2 40.75-1.8Q40.75-1.15 40.58-0.7 40.4-0.25 40.05 0.05L40.05 0.05 33.55 5.45Q33.35 5.65 32.93 5.8 32.5 5.95 32 5.95L32 5.95 24.25 5.95Q23.05 5.95 22.5 5.4 21.95 4.85 21.95 3.65L21.95 3.65 21.95-6.95 21.05-6.95 21.05-1.8Q21.05-1.15 20.88-0.7 20.7-0.25 20.35 0.05ZM63.95 5.95L63.95 5.95 55.85 5.95Q54.6 5.95 54.07 5.4 53.55 4.85 53.55 3.65L53.55 3.65 53.55-2.6 46-12.7Q44.8-14.3 44.4-15.5 44-16.7 44-19.15L44-19.15 44-28.75Q44-29.4 44.17-29.85 44.35-30.3 44.7-30.6L44.7-30.6 51.15-36.05Q51.4-36.25 51.82-36.38 52.25-36.5 52.75-36.5L52.75-36.5 60.45-36.5Q61.65-36.5 62.2-35.95 62.75-35.4 62.75-34.2L62.75-34.2 62.75-26Q62.75-25.55 62.8-25.1 62.85-24.65 63.1-24.15L63.1-24.15 63.7-23.3 63.7-28.75Q63.7-29.4 63.87-29.85 64.05-30.3 64.4-30.6L64.4-30.6 70.85-36.05Q71.1-36.25 71.52-36.38 71.95-36.5 72.45-36.5L72.45-36.5 79.9-36.5Q81.1-36.5 81.65-35.95 82.2-35.4 82.2-34.2L82.2-34.2 82.2-24.6Q82.2-22.15 81.8-20.95 81.4-19.75 80.2-18.15L80.2-18.15 72.7-8 72.7-1.8Q72.7-1.15 72.52-0.7 72.35-0.25 72 0.05L72 0.05 65.5 5.45Q65.3 5.65 64.87 5.8 64.45 5.95 63.95 5.95ZM62.3 0L70.4 0Q71.35 0 71.77-0.43 72.2-0.85 72.2-1.8L72.2-1.8 72.2-8.15 79.8-18.45Q80.9-20 81.3-21.15 81.7-22.3 81.7-24.6L81.7-24.6 81.7-34.2Q81.7-35.15 81.27-35.58 80.85-36 79.9-36L79.9-36 72.45-36Q71.5-36 71.07-35.58 70.65-35.15 70.65-34.2L70.65-34.2 70.65-26Q70.65-25.5 70.6-24.95 70.55-24.4 70.2-23.9L70.2-23.9 67.9-20.3Q67.65-19.85 67.37-19.65 67.1-19.45 66.7-19.45L66.7-19.45 66.2-19.45Q65.8-19.45 65.52-19.65 65.25-19.85 65-20.3L65-20.3 62.7-23.9Q62.35-24.4 62.3-24.95 62.25-25.5 62.25-26L62.25-26 62.25-34.2Q62.25-35.15 61.82-35.58 61.4-36 60.45-36L60.45-36 52.75-36Q51.8-36 51.37-35.58 50.95-35.15 50.95-34.2L50.95-34.2 50.95-24.6Q50.95-22.3 51.32-21.15 51.7-20 52.85-18.45L52.85-18.45 60.5-8.2 60.5-1.8Q60.5-0.85 60.92-0.43 61.35 0 62.3 0L62.3 0ZM66.95-13.05L66.95-13.05 66.6-13.05 66.6-4.5 66.1-4.5 66.1-13.05 65.6-13.05Q64.5-13.05 63.62-13.55 62.75-14.05 61.95-15.15L61.95-15.15 57.1-21.9Q56.55-22.65 56.45-23.65 56.35-24.65 56.35-25.75L56.35-25.75 56.35-31.5 56.85-31.5 56.85-25.75Q56.85-24.7 56.95-23.78 57.05-22.85 57.55-22.1L57.55-22.1 62.4-15.35Q63.05-14.35 63.9-13.95 64.75-13.55 65.6-13.55L65.6-13.55 66.95-13.55Q67.9-13.55 68.67-13.98 69.45-14.4 70.2-15.35L70.2-15.35 75.2-22.1Q75.7-22.75 75.8-23.73 75.9-24.7 75.9-25.75L75.9-25.75 75.9-31.5 76.4-31.5 76.4-25.75Q76.4-24.65 76.32-23.68 76.25-22.7 75.65-21.9L75.65-21.9 70.65-15.15Q69.85-14.05 68.97-13.55 68.1-13.05 66.95-13.05Z" opacity="1" transform="matrix(1,0,0,1,0,0)" fill="#ffffff" class="wordmark-text-0" data-fill-palette-color="primary" id="text-0"></path></svg></g></svg></g></svg></g></svg></g></svg></g></svg></g></svg></g></svg></g><defs></defs></svg><rect width="395.52" height="247.2" fill="none" stroke="none" visibility="hidden"></rect></g></svg></g></svg>